<?xml version="1.0" encoding="UTF-8" standalone="no"?>
<!-- Generator: Adobe Illustrator 18.1.1, SVG Export Plug-In . SVG Version: 6.00 Build 0)  -->

<svg
   xmlns:dc="http://purl.org/dc/elements/1.1/"
   xmlns:cc="http://creativecommons.org/ns#"
   xmlns:rdf="http://www.w3.org/1999/02/22-rdf-syntax-ns#"
   xmlns:svg="http://www.w3.org/2000/svg"
   xmlns="http://www.w3.org/2000/svg"
   xmlns:sodipodi="http://sodipodi.sourceforge.net/DTD/sodipodi-0.dtd"
   xmlns:inkscape="http://www.inkscape.org/namespaces/inkscape"
   version="1.1"
   id="Capa_1"
   x="0px"
   y="0px"
   viewBox="0 0 1844.3694 1052.4424"
   xml:space="preserve"
   inkscape:version="0.91 r13725"
   sodipodi:docname="fondo.svg"
   width="1844.3694"
   height="1052.4424"><metadata
   id="metadata53"><rdf:RDF><cc:Work
       rdf:about=""><dc:format>image/svg+xml</dc:format><dc:type
         rdf:resource="http://purl.org/dc/dcmitype/StillImage" /><dc:title></dc:title></cc:Work></rdf:RDF></metadata><defs
   id="defs51"><filter
     style="color-interpolation-filters:sRGB"
     inkscape:label="Drop Shadow"
     id="filter8111"><feFlood
       flood-opacity="0.498039"
       flood-color="rgb(0,0,0)"
       result="flood"
       id="feFlood8113" /><feComposite
       in="flood"
       in2="SourceGraphic"
       operator="in"
       result="composite1"
       id="feComposite8115" /><feGaussianBlur
       in="composite1"
       stdDeviation="3"
       result="blur"
       id="feGaussianBlur8117" /><feOffset
       dx="6"
       dy="6"
       result="offset"
       id="feOffset8119" /><feComposite
       in="SourceGraphic"
       in2="offset"
       operator="over"
       result="composite2"
       id="feComposite8121" /></filter></defs><sodipodi:namedview
   pagecolor="#ffffff"
   bordercolor="#666666"
   borderopacity="1"
   objecttolerance="10"
   gridtolerance="10"
   guidetolerance="10"
   inkscape:pageopacity="0"
   inkscape:pageshadow="2"
   inkscape:window-width="1920"
   inkscape:window-height="1018"
   id="namedview49"
   showgrid="false"
   inkscape:zoom="0.49590041"
   inkscape:cx="749.33735"
   inkscape:cy="497.19589"
   inkscape:window-x="-8"
   inkscape:window-y="77"
   inkscape:window-maximized="1"
   inkscape:current-layer="g3"
   fit-margin-top="0"
   fit-margin-left="0"
   fit-margin-right="0"
   fit-margin-bottom="0" />
<g
   id="g3"
   transform="translate(731.76328,328.69473)">
	
	
	
	
	
	
	<path
   id="rect17"
   style="opacity:0.42399998;fill:#737373;fill-opacity:1"
   d="m 144.66869,292.86124 27.48538,0 0,39.68871 -27.48538,0 z m 0,-82.45615 27.48538,0 0,39.68871 -27.48538,0 z m -101.532093,-86.66256 39.688709,0 0,27.48538 -39.688709,0 z m 82.457843,27.4854 19.07425,0 0,16.40974 27.48539,0 0,-43.89512 -46.55964,0 z M 95.82664,56.073084 c 0.06932,0.09637 0.06932,0.246839 0.150471,0.329683 l 12.396059,10.375702 c 0.79631,0.659365 3.72457,1.607836 6.51419,1.607836 1.86821,0 3.66878,-0.426051 4.71362,-1.634887 2.61041,-3.00941 -0.43958,-9.785655 -1.77352,-10.898122 L 105.43139,45.477594 c -0.2891,-0.246839 -0.67289,-0.356734 -1.12768,-0.356734 -0.0828,0 -0.17921,0.04058 -0.26037,0.05579 -1.58078,0.136945 -3.82093,1.524993 -5.744926,3.751618 -2.443032,2.814982 -3.420245,5.839608 -2.471774,7.144813 z M 25.203564,-12.215163 C 5.8402079,10.296238 -1.5396094,29.659594 -1.9115589,39.416507 c -0.1098942,2.968834 6.5547655,6.733977 7.7365507,6.733977 0.027051,0 0.055792,0 0.069318,0 l 15.7351572,1.883418 11.723173,1.401573 53.515088,6.417821 c 0,-0.02705 -0.02705,-0.05579 -0.02705,-0.09637 -0.316157,-3.998458 1.511468,-8.657971 5.016247,-12.781539 1.704205,-1.993312 6.170981,-6.417821 11.736695,-6.816821 L 88.325094,-15.926206 85.026577,-27.181061 80.918226,-41.225538 c 0.246839,-3.092253 -3.298517,-7.06366 -4.287564,-7.06366 -9.910765,0.01353 -31.294483,12.656429 -51.427098,36.074035 z m 44.169009,-19.542568 2.473465,8.451708 3.298516,11.254855 11.942962,40.733549 c -2.639151,2.020362 -4.57667,4.081301 -5.689137,5.401722 -1.827625,2.143782 -3.367835,4.410983 -4.617247,6.720452 L 34.989218,35.801833 23.266045,34.40026 13.260602,33.204949 C 16.009647,24.766766 22.88057,11.574392 35.619842,-3.2410351 49.128373,-18.976192 61.620806,-27.730532 69.372573,-31.757731 Z m -366.617153,-210.430459 0.027,0.0271 c 0.43958,1.03131 0.92142,1.48442 0.92142,1.48442 l 0.30264,-0.31616 206.004257,197.030131 0,519.863749 553.973213,0 0,-773.0329 -553.973213,0 0,90.29075 -125.898167,-120.40007 -0.61878,0.64584 c -4.17767,-1.52499 -27.7187,-10.22523 -60.49591,24.04992 -32.77721,34.27515 -21.94671,56.24892 -20.24251,60.35727 l 0,0 z m 574.18867,482.74487 118.32561,0 0,166.63171 -118.32561,0 0,-166.63171 z m 0,-312.648959 32.63858,0 17.0691,0 46.38211,0 19.00662,0 3.2292,0 0,298.905429 -118.32561,0 0,-298.905429 z m 0,-156.325321 18.89673,0 0,142.581785 -18.89673,0 0,-142.581785 z m 63.44953,0 18.89672,0 0,142.581785 -18.89672,0 0,-142.581785 z m 54.87608,142.581785 -3.2292,0 -19.00662,0 0,-142.581785 22.23582,0 0,142.581785 z m -68.61793,0 -17.0691,0 0,-142.581785 17.0691,0 0,142.581785 z m -63.45121,0 -17.179,0 0,-142.581785 17.179,0 0,142.581785 z m -49.81757,-142.581785 18.89673,0 0,142.581785 -18.89673,0 0,-142.581785 z m -234.657905,0 220.916055,0 0,142.581785 -72.14976,0 0,13.743536 72.14976,0 46.38211,0 17.179,0 0,298.905429 0,13.74353 0,166.63171 -91.04649,0 0,-31.86931 -27.48538,0 0,31.86931 -165.945295,0 0,-255.96047 21.64577381,0 0,-27.48538 -21.64577381,0 0,-101.985184 12.4095901,11.873645 C -5.828864,18.431789 5.24847,-0.27220139 19.265896,-16.269414 36.182838,-35.605718 55.738931,-49.443933 70.621986,-53.224293 l -91.898591,-87.898447 0,-87.29486 z"
   inkscape:connector-curvature="0" />
<flowRoot
   xml:space="preserve"
   id="flowRoot12636"
   style="font-style:normal;font-weight:normal;font-size:40px;line-height:125%;font-family:sans-serif;letter-spacing:0px;word-spacing:0px;fill:#000000;fill-opacity:1;stroke:none;stroke-width:1px;stroke-linecap:butt;stroke-linejoin:miter;stroke-opacity:1"><flowRegion
     id="flowRegion12638"><rect
       id="rect12640"
       width="457.7532"
       height="209.71953"
       x="143.1739"
       y="-294.41394" /></flowRegion><flowPara
     id="flowPara12642" /></flowRoot><path
   style="opacity:0.83999999;fill:#737373;fill-opacity:1"
   d="m 179.1448,652.71741 -8.2734,-8.47281 25.0991,-25.16471 25.0992,-25.16471 -68.7371,0 -68.737102,0 0,-12.59907 0,-12.59907 69.788302,0 69.7883,0 -26.1436,-26.20661 -26.1437,-26.2066 7.1635,-7.39091 c 3.94,-4.06501 8.1687,-7.39091 9.3972,-7.39091 1.2285,0 19.9417,17.72652 41.585,39.39228 l 39.35133,39.39229 -40.48173,40.44182 -40.4818,40.44182 -8.2735,-8.47281 z"
   id="path8139"
   inkscape:connector-curvature="0" /><path
   id="path8092-0"
   style="opacity:0.8;fill:#8fd400;fill-opacity:1"
   d="m 626.4054,659.01037 c -0.71379,-1.15491 -2.75391,-2.09984 -4.53361,-2.09984 -4.77293,0 -16.42058,-12.57585 -19.25257,-20.78683 -1.60855,-4.66371 -2.46188,-24.13382 -2.46188,-56.17086 l 0,-49.03301 -6.04243,0 c -8.38609,0 -11.11037,-4.2393 -10.35308,-16.11065 0.64207,-10.0654 0.70261,-10.14204 8.52109,-10.78913 l 7.87442,-0.65172 0,-24.10978 0,-24.10979 16.27379,0.61329 16.2738,0.61329 0.59373,23.62326 0.59374,23.62325 10.43045,0 10.43046,0 0,13.64899 0,13.64899 -10.49923,0 -10.49922,0 0,48.29644 0,48.29643 10.49922,0 10.49923,0 0,16.79876 0,16.79876 -13.52506,0 c -7.43879,0 -14.10907,-0.94493 -14.82285,-2.09985 z m -90.29333,0 c -0.71377,-1.15491 -2.99173,-2.09984 -5.0621,-2.09984 -5.79759,0 -16.47962,-11.48429 -18.94718,-20.37016 -1.25984,-4.53684 -2.22041,-29.03507 -2.22707,-56.79914 l -0.0117,-48.8214 -7.34945,0 -7.34946,0 0,-13.51595 0,-13.51594 6.82449,-0.65801 6.8245,-0.658 1.04992,-23.0983 1.04993,-23.09829 15.15426,-0.61555 15.15426,-0.61555 0.59459,23.71385 0.59457,23.71384 11.12145,0.63807 11.12145,0.63807 -0.62222,13.01092 -0.62223,13.01092 -11.02419,0.6347 -11.02418,0.6347 0,44.63558 c 0,32.47178 0.71529,45.57412 2.6248,48.07957 1.46494,1.92214 6.33637,3.72329 11.02419,4.07607 l 8.39938,0.63209 0.61328,16.2738 0.6133,16.2738 -13.6134,0 c -7.48735,0 -14.19739,-0.94493 -14.91117,-2.09985 z m -114.82635,-38.79449 7.73425,-7.29682 0,-31.1208 c 0,-30.63054 -0.0844,-31.20199 -5.36575,-36.27496 -12.31016,-11.82474 -26.13705,-13.85362 -38.70355,-5.67913 -10.81667,7.03621 -12.62652,13.49242 -12.62652,45.0418 l 0,27.71807 8.13836,7.45433 c 7.41251,6.7895 9.25099,7.45433 20.61367,7.45433 11.35663,0 13.16884,-0.65431 20.20954,-7.29682 z m -46.87649,101.01434 c -8.59661,-3.23246 -21.36487,-11.34573 -27.4817,-17.46256 -5.02988,-5.02988 -6.54234,-9.05993 -3.40015,-9.05993 0.90801,0 5.8689,-3.7529 11.02418,-8.33978 8.87111,-7.89305 14.62282,-10.54757 14.62282,-6.74869 0,4.19213 17.57363,10.88878 28.57485,10.88878 21.03954,0 32.32066,-11.40803 32.32066,-32.68429 0,-9.17271 -1.43031,-11.15222 -5.3546,-7.41065 -12.23363,11.66399 -41.36417,14.67811 -57.72219,5.97246 -9.79092,-5.21068 -20.80841,-17.7246 -25.07662,-28.48261 -3.92568,-9.89467 -3.75818,-80.57119 0.21778,-91.89443 4.1525,-11.82605 14.10694,-23.26461 24.45076,-28.09611 3.15653,-1.47438 7.37993,-3.51538 9.38536,-4.53555 4.71987,-2.40101 25.78489,-2.40101 30.50476,0 2.00544,1.02017 6.22883,3.06117 9.38537,4.53555 3.15652,1.47438 7.5864,4.40169 9.84415,6.50512 4.01188,3.73763 4.1199,3.67045 4.7601,-2.96067 l 0.65507,-6.78509 16.41814,-0.61589 16.41814,-0.61588 -0.75605,87.75945 c -0.74463,86.43165 -0.82816,87.89688 -5.52022,96.84367 -8.61713,16.43101 -21.15944,27.42546 -38.10916,33.40601 -8.97132,3.16545 -36.51593,3.03193 -45.16144,-0.21891 z"
   inkscape:connector-curvature="0" /><text
   xml:space="preserve"
   style="font-style:normal;font-weight:normal;font-size:40px;line-height:125%;font-family:sans-serif;text-align:center;letter-spacing:0px;word-spacing:0px;text-anchor:middle;opacity:0.84500002;fill:#000000;fill-opacity:1;stroke:none;stroke-width:1px;stroke-linecap:butt;stroke-linejoin:miter;stroke-opacity:1;filter:url(#filter8111)"
   x="-1019.0521"
   y="-10.87291"
   id="text8128"
   sodipodi:linespacing="125%"
   transform="matrix(1.2283033,0,0,1.2283033,-44.61523,42.025833)"><tspan
     sodipodi:role="line"
     x="-393.40271"
     y="-10.87291"
     id="tspan8130"
     style="text-align:start;text-anchor:start"><tspan
       x="-393.40271"
       y="-10.87291"
       style="font-style:normal;font-variant:normal;font-weight:bold;font-stretch:normal;font-size:180px;font-family:sans-serif;-inkscape-font-specification:'sans-serif Bold';text-align:start;text-anchor:start;fill:#8fd400;fill-opacity:1"
       id="tspan8132"
       dx="0 0 0 0 0 0 0 0 0 0 0 0">Seguimiento</tspan></tspan><tspan
     sodipodi:role="line"
     x="-215.51208"
     y="214.12709"
     id="tspan8136"
     style="text-align:start;text-anchor:start"><tspan
       x="-215.51208"
       y="214.12709"
       style="font-style:normal;font-variant:normal;font-weight:bold;font-stretch:normal;font-size:180px;font-family:sans-serif;-inkscape-font-specification:'sans-serif Bold';text-align:start;text-anchor:start;fill:#8fd400;fill-opacity:1"
       id="tspan8138">Catastral</tspan></tspan></text>
</g>
<g
   id="g19"
   transform="translate(731.76328,328.69473)">
</g>
<g
   id="g21"
   transform="translate(731.76328,328.69473)">
</g>
<g
   id="g23"
   transform="translate(731.76328,328.69473)">
</g>
<g
   id="g25"
   transform="translate(731.76328,328.69473)">
</g>
<g
   id="g27"
   transform="translate(731.76328,328.69473)">
</g>
<g
   id="g29"
   transform="translate(731.76328,328.69473)">
</g>
<g
   id="g31"
   transform="translate(731.76328,328.69473)">
</g>
<g
   id="g33"
   transform="translate(731.76328,328.69473)">
</g>
<g
   id="g35"
   transform="translate(731.76328,328.69473)">
</g>
<g
   id="g37"
   transform="translate(731.76328,328.69473)">
</g>
<g
   id="g39"
   transform="translate(731.76328,328.69473)">
</g>
<g
   id="g41"
   transform="translate(731.76328,328.69473)">
</g>
<g
   id="g43"
   transform="translate(731.76328,328.69473)">
</g>
<g
   id="g45"
   transform="translate(731.76328,328.69473)">
</g>
<g
   id="g47"
   transform="translate(731.76328,328.69473)">
</g>
</svg>