<?xml version="1.0" encoding="UTF-8" standalone="no"?>
<!-- Created with Inkscape (http://www.inkscape.org/) -->

<svg
   xmlns:dc="http://purl.org/dc/elements/1.1/"
   xmlns:cc="http://creativecommons.org/ns#"
   xmlns:rdf="http://www.w3.org/1999/02/22-rdf-syntax-ns#"
   xmlns:svg="http://www.w3.org/2000/svg"
   xmlns="http://www.w3.org/2000/svg"
   xmlns:sodipodi="http://sodipodi.sourceforge.net/DTD/sodipodi-0.dtd"
   xmlns:inkscape="http://www.inkscape.org/namespaces/inkscape"
   width="100mm"
   height="33mm"
   viewBox="0 0 354.33062 116.92913"
   id="svg2"
   version="1.1"
   inkscape:version="0.91 r13725"
   sodipodi:docname="logo.svg">
  <defs
     id="defs4" />
  <sodipodi:namedview
     id="base"
     pagecolor="#ffffff"
     bordercolor="#666666"
     borderopacity="1"
     inkscape:pageopacity="0.0"
     inkscape:pageshadow="2"
     inkscape:zoom="0.70710678"
     inkscape:cx="40.714286"
     inkscape:cy="250.57087"
     inkscape:document-units="px"
     inkscape:current-layer="layer1"
     showgrid="false"
     inkscape:window-width="1920"
     inkscape:window-height="1018"
     inkscape:window-x="-8"
     inkscape:window-y="77"
     inkscape:window-maximized="1" />
  <metadata
     id="metadata7">
    <rdf:RDF>
      <cc:Work
         rdf:about="">
        <dc:format>image/svg+xml</dc:format>
        <dc:type
           rdf:resource="http://purl.org/dc/dcmitype/StillImage" />
        <dc:title></dc:title>
      </cc:Work>
    </rdf:RDF>
  </metadata>
  <g
     inkscape:label="Capa 1"
     inkscape:groupmode="layer"
     id="layer1"
     transform="translate(0,-935.43307)">
    <g
       transform="matrix(2.238851,0,0,2.5310557,248.30814,1134.899)"
       style="font-style:normal;font-variant:normal;font-weight:bold;font-stretch:normal;font-size:40px;line-height:125%;font-family:sans-serif;-inkscape-font-specification:'sans-serif Bold';letter-spacing:0px;word-spacing:0px;fill:#ffffff;fill-opacity:1;stroke:none;stroke-width:1px;stroke-linecap:butt;stroke-linejoin:miter;stroke-opacity:1"
       id="flowRoot12598">
      <path
         d="m -84.007812,-53.848945 q 0,4.296875 -3.652344,6.992188 -3.632813,2.675781 -9.882813,2.675781 -3.613281,0 -6.308591,-0.625 -2.67578,-0.644531 -5.01953,-1.621094 l 0,-6.972656 0.82031,0 q 2.32422,1.855469 5.19531,2.851563 2.890626,0.996093 5.546876,0.996093 0.683594,0 1.796875,-0.117187 1.113282,-0.117188 1.816407,-0.390625 0.859375,-0.351563 1.40625,-0.878906 0.566406,-0.527344 0.566406,-1.5625 0,-0.957032 -0.820313,-1.640625 -0.800781,-0.703125 -2.363281,-1.074219 -1.640625,-0.390625 -3.476562,-0.722656 -1.816408,-0.351563 -3.417968,-0.878907 -3.67188,-1.191406 -5.29297,-3.222656 -1.60156,-2.050781 -1.60156,-5.078125 0,-4.0625 3.63281,-6.621094 3.65234,-2.578125 9.375,-2.578125 2.871094,0 5.664063,0.566407 2.8125,0.546875 4.863281,1.386718 l 0,6.699219 -0.800781,0 q -1.757813,-1.40625 -4.316407,-2.34375 -2.539062,-0.957031 -5.195312,-0.957031 -0.9375,0 -1.875,0.136719 -0.917969,0.117187 -1.777344,0.46875 -0.761719,0.292968 -1.30859,0.898437 -0.54688,0.585938 -0.54688,1.347656 0,1.152344 0.87891,1.777344 0.878904,0.605469 3.32031,1.113281 1.601563,0.332032 3.066406,0.644532 1.484375,0.3125 3.183594,0.859375 3.339844,1.09375 4.921875,2.988281 1.601563,1.875 1.601563,4.882812 z"
         id="path12607"
         inkscape:connector-curvature="0" />
      <path
         d="m -57.640625,-54.376288 -16.09375,0 q 0.15625,2.578125 1.953125,3.945312 1.816406,1.367188 5.332031,1.367188 2.226563,0 4.316407,-0.800782 2.089843,-0.800781 3.300781,-1.71875 l 0.78125,0 0,5.644532 q -2.382813,0.957031 -4.492188,1.386718 -2.109375,0.429688 -4.667968,0.429688 -6.601563,0 -10.117188,-2.96875 -3.515625,-2.96875 -3.515625,-8.457031 0,-5.429688 3.320313,-8.59375 3.339843,-3.183594 9.140625,-3.183594 5.351562,0 8.046875,2.714844 2.695312,2.695312 2.695312,7.773437 l 0,2.460938 z m -6.992187,-4.121094 q -0.05859,-2.207031 -1.09375,-3.320313 -1.035157,-1.113281 -3.222657,-1.113281 -2.03125,0 -3.339843,1.054688 -1.308594,1.054687 -1.464844,3.378906 l 9.121094,0 z"
         id="path12609"
         inkscape:connector-curvature="0" />
      <path
         d="m -31.351562,-47.227851 q 0,3.085938 -0.878907,5.195313 -0.878906,2.109375 -2.460937,3.300781 -1.582031,1.210937 -3.828125,1.738281 -2.226563,0.546875 -5.039063,0.546875 -2.285156,0 -4.511718,-0.273437 -2.207032,-0.273438 -3.828125,-0.664063 l 0,-5.488281 0.859375,0 q 1.289062,0.507812 3.144531,0.917969 1.855469,0.429687 3.320312,0.429687 1.953125,0 3.164063,-0.371094 1.230469,-0.351562 1.875,-1.015625 0.605469,-0.625 0.878906,-1.601562 0.273438,-0.976563 0.273438,-2.34375 l 0,-0.410156 q -1.269532,1.035156 -2.8125,1.640625 -1.542969,0.605468 -3.4375,0.605468 -4.609375,0 -7.109375,-2.773437 -2.5,-2.773438 -2.5,-8.4375 0,-2.714844 0.761718,-4.6875 0.761719,-1.972656 2.148438,-3.4375 1.289062,-1.367188 3.164062,-2.128906 1.894532,-0.761719 3.867188,-0.761719 1.777344,0 3.222656,0.429687 1.464844,0.410157 2.65625,1.152344 l 0.253906,-0.976562 6.816407,0 0,19.414062 z m -7.03125,-4.394531 0,-9.941406 q -0.605469,-0.253907 -1.484375,-0.390625 -0.878907,-0.15625 -1.582032,-0.15625 -2.773437,0 -4.160156,1.601562 -1.386719,1.582031 -1.386719,4.433594 0,3.164062 1.171875,4.414062 1.191407,1.25 3.515625,1.25 1.054688,0 2.070313,-0.332031 1.015625,-0.332031 1.855469,-0.878906 z"
         id="path12611"
         inkscape:connector-curvature="0" />
      <path
         d="m -11.175781,-44.141913 q -3.242188,0 -5.996094,-0.957032 -2.734375,-0.957031 -4.707031,-2.851562 -1.972656,-1.894531 -3.066406,-4.726563 -1.074219,-2.832031 -1.074219,-6.542968 0,-3.457032 1.035156,-6.269532 1.035156,-2.8125 3.007813,-4.824218 1.894531,-1.933594 4.6875,-2.988282 2.812499,-1.054687 6.132812,-1.054687 1.8359375,0 3.3007813,0.214844 1.484375,0.195312 2.734375,0.527343 1.3085937,0.371094 2.3632812,0.839844 1.0742188,0.449219 1.875,0.839844 l 0,7.050781 -0.859375,0 q -0.546875,-0.46875 -1.3867188,-1.113281 -0.8203125,-0.644531 -1.8749999,-1.269531 -1.0742188,-0.625 -2.3242188,-1.054688 -1.25,-0.429687 -2.675781,-0.429687 -1.582032,0 -3.007813,0.507812 -1.425781,0.488281 -2.636719,1.640625 -1.152343,1.113281 -1.874999,2.949219 -0.703125,1.835937 -0.703125,4.453125 0,2.734375 0.761718,4.570312 0.78125,1.835938 1.953125,2.890625 1.191406,1.074219 2.65625,1.542969 1.464844,0.449219 2.8906252,0.449219 1.3671875,0 2.6953126,-0.410156 1.3476562,-0.410157 2.4804687,-1.113282 0.9570312,-0.566406 1.7773437,-1.210937 0.8203125,-0.644531 1.3476563,-1.113281 l 0.78125,0 0,6.953125 q -1.09375,0.488281 -2.0898438,0.917968 -0.9960937,0.429688 -2.0898437,0.742188 -1.4257812,0.410156 -2.6757812,0.625 -1.2500001,0.214844 -3.4374998,0.214844 z"
         id="path12613"
         inkscape:connector-curvature="0" />
      <path
         d="m 17.554687,-50.430976 0,-4.570312 q -1.425781,0.117187 -3.085937,0.332031 -1.660156,0.195312 -2.519531,0.46875 -1.054688,0.332031 -1.621094,0.976562 -0.546875,0.625 -0.546875,1.660157 0,0.683593 0.1171875,1.113281 0.1171875,0.429687 0.5859375,0.820312 0.449219,0.390625 1.074219,0.585938 0.625,0.175781 1.953125,0.175781 1.054687,0 2.128906,-0.429687 1.09375,-0.429688 1.914062,-1.132813 z m 0,3.398438 q -0.566406,0.429687 -1.40625,1.035156 -0.839843,0.605469 -1.582031,0.957031 -1.035156,0.46875 -2.148437,0.683594 -1.113281,0.234375 -2.4414065,0.234375 -3.125,0 -5.234375,-1.933594 -2.109375,-1.933594 -2.109375,-4.941406 0,-2.402344 1.0742188,-3.925781 1.0742187,-1.523438 3.0468749,-2.402344 1.9531251,-0.878906 4.8437498,-1.25 2.890625,-0.371094 5.996094,-0.546875 l 0,-0.117188 q 0,-1.816406 -1.484375,-2.5 -1.484375,-0.703125 -4.375,-0.703125 -1.7382812,0 -3.7109375,0.625 -1.9726563,0.605469 -2.8320313,0.9375 l -0.6445312,0 0,-5.292968 q 1.1132812,-0.292969 3.6132813,-0.683594 2.5195317,-0.410156 5.0390627,-0.410156 5.996093,0 8.652343,1.855468 2.675782,1.835938 2.675782,5.78125 l 0,14.921875 -6.972657,0 0,-2.324218 z"
         id="path12615"
         inkscape:connector-curvature="0" />
      <path
         d="m 45.015625,-44.903632 q -1.132813,0.292969 -2.402344,0.449219 -1.269531,0.175781 -3.105469,0.175781 -4.101562,0 -6.113281,-1.660156 -1.992187,-1.660157 -1.992187,-5.683594 l 0,-10.253906 -2.890625,0 0,-4.765625 2.890625,0 0,-6.269532 7.03125,0 0,6.269532 6.582031,0 0,4.765625 -6.582031,0 0,7.773437 q 0,1.152344 0.01953,2.011719 0.01953,0.859375 0.3125,1.542969 0.273437,0.683593 0.957031,1.09375 0.703125,0.390625 2.03125,0.390625 0.546875,0 1.425781,-0.234375 0.898438,-0.234375 1.25,-0.429688 l 0.585938,0 0,4.824219 z"
         id="path12617"
         inkscape:connector-curvature="0" />
    </g>
  </g>
</svg>
